# Alias OBJ Model File
# Exported from SketchUp, (c) 2000-2012 Trimble Navigation Limited
# File units = meters

mtllib 無題.mtl

g Mesh1 Model

usemtl FrontColor
v 2.97 0 -0
vt -116.929 0
vn 0 -1 -0
v 0 0 -0
vt 0 0
v 0 0 -2.97
vt 0 116.929
v 2.97 0 -2.97
vt -116.929 116.929
f 1/1/1 2/2/1 3/3/1 4/4/1 

v 2.97 1.88 -0
vt 116.929 74.0157
vn 0 0 1
vt 116.929 0
f 5/5/2 2/2/2 1/6/2

v 1.23767 0.858943 -0
vt 48.7272 33.8167
f 2/2/2 5/5/2 6/7/2

v 1.32949 0.92796 -0
vt 52.342 36.5339
f 6/7/2 5/5/2 7/8/2

v 1.40031 1.01839 -0
vt 55.1304 40.0941
f 7/8/2 5/5/2 8/9/2

v 1.44532 1.12407 -0
vt 56.9023 44.2546
f 8/9/2 5/5/2 9/10/2

v 1.46144 1.23779 -0
vt 57.537 48.732
f 9/10/2 5/5/2 10/11/2

v 1.44758 1.35182 -0
vt 56.9912 53.2211
f 10/11/2 5/5/2 11/12/2

v 1.40467 1.45837 -0
vt 55.3022 57.416
f 11/12/2 5/5/2 12/13/2

v 1.33566 1.55018 -0
vt 52.585 61.0308
f 12/13/2 5/5/2 13/14/2

v 1.24523 1.62101 -0
vt 49.0248 63.8192
f 13/14/2 5/5/2 14/15/2

v 1.13955 1.66601 -0
vt 44.8642 65.5911
f 14/15/2 5/5/2 15/16/2

v 1.02582 1.68214 -0
vt 40.3868 66.2258
f 15/16/2 5/5/2 16/17/2

v 0 1.88 -0
vt 0 74.0157
f 17/18/2 16/17/2 5/5/2

v 0.911801 1.66827 -0
vt 35.8977 65.6801
f 17/18/2 18/19/2 16/17/2

v 0.805251 1.62537 -0
vt 31.7028 63.991
f 17/18/2 19/20/2 18/19/2

v 0.713435 1.55635 -0
vt 28.088 61.2738
f 17/18/2 20/21/2 19/20/2

v 0.64261 1.46593 -0
vt 25.2996 57.7136
f 17/18/2 21/22/2 20/21/2

v 0.597603 1.36025 -0
vt 23.5277 53.553
f 17/18/2 22/23/2 21/22/2

v 0.581482 1.24652 -0
vt 22.893 49.0756
f 17/18/2 23/24/2 22/23/2

v 0.595345 1.1325 -0
vt 23.4388 44.5865
f 17/18/2 24/25/2 23/24/2

v 0.638246 1.02595 -0
vt 25.1278 40.3916
f 17/18/2 25/26/2 24/25/2

f 2/2/2 25/26/2 17/18/2

v 0.707263 0.934131 -0
vt 27.845 36.7768
f 25/26/2 2/2/2 26/27/2

v 0.797692 0.863307 -0
vt 31.4052 33.9885
f 26/27/2 2/2/2 27/28/2

v 0.90337 0.8183 -0
vt 35.5658 32.2165
f 27/28/2 2/2/2 28/29/2

v 1.0171 0.802179 -0
vt 40.0432 31.5818
f 28/29/2 2/2/2 29/30/2

v 1.13112 0.816041 -0
vt 44.5323 32.1276
f 2/2/2 30/31/2 29/30/2

f 2/2/2 6/7/2 30/31/2

vt 0 53.3092
vn -0.249226 0.968445 -0
vt 0 57.8313
vn -0.491386 0.870942 -0
v 1.23767 0.858943 -0.48
vt -18.8976 57.8313
v 1.13112 0.816041 -0.48
vt -18.8976 53.3092
f 30/32/3 6/33/4 31/34/4 32/35/3 

vt 0 59.2693
vt 0 63.7915
vn -0.700059 0.714085 -0
v 1.32949 0.92796 -0.48
vt -18.8976 63.7915
vt -18.8976 59.2693
f 6/36/4 7/37/5 33/38/5 31/39/4 

vt 0 61.0363
vt 0 65.5585
vn -0.861024 0.508565 -0
v 1.40031 1.01839 -0.48
vt -18.8976 65.5585
vt -18.8976 61.0363
f 7/40/5 8/41/6 34/42/6 33/43/5 

vt 0 58.4897
vt 0 63.0118
vn -0.963311 0.268386 -0
v 1.44532 1.12407 -0.48
vt -18.8976 63.0118
vt -18.8976 58.4897
f 8/44/6 9/45/7 35/46/7 34/47/6 

vt 0 51.803
vt 0 56.3251
vn -0.999951 0.00991805 -0
v 1.46144 1.23779 -0.48
vt -18.8976 56.3251
vt -18.8976 51.803
f 9/48/7 10/49/8 36/50/8 35/51/7 

vt 0 41.4319
vt 0 45.9541
vn -0.968445 -0.249226 -0
v 1.44758 1.35182 -0.48
vt -18.8976 45.9541
vt -18.8976 41.4319
f 10/52/8 11/53/9 37/54/9 36/55/8 

vt 0 28.0832
vt 0 32.6054
vn -0.870942 -0.491386 -0
v 1.40467 1.45837 -0.48
vt -18.8976 32.6054
vt -18.8976 28.0832
f 11/56/9 12/57/10 38/58/10 37/59/9 

vt 0 12.6666
vt 0 17.1888
vn -0.714085 -0.700059 -0
v 1.33566 1.55018 -0.48
vt -18.8976 17.1888
vt -18.8976 12.6666
f 12/60/10 13/61/11 39/62/11 38/63/10 

vt 0 -3.76729
vt 0 0.754876
vn -0.508565 -0.861024 -0
v 1.24523 1.62101 -0.48
vt -18.8976 0.754876
vt -18.8976 -3.76729
f 13/64/11 14/65/12 40/66/12 39/67/11 

vt 0 -20.0985
vt 0 -15.5764
vn -0.268386 -0.963311 -0
v 1.13955 1.66601 -0.48
vt -18.8976 -15.5764
vt -18.8976 -20.0985
f 14/68/12 15/69/13 41/70/13 40/71/12 

vt 0 -35.2142
vt 0 -30.692
vn -0.00991805 -0.999951 -0
v 1.02582 1.68214 -0.48
vt -18.8976 -30.692
vt -18.8976 -35.2142
f 15/72/13 16/73/14 42/74/14 41/75/13 

vt 0 48.0842
vt 0 43.562
vn 0.249226 -0.968445 -0
v 0.911801 1.66827 -0.48
vt 18.8976 43.562
vt 18.8976 48.0842
f 16/76/14 18/77/15 43/78/15 42/79/14 

vn 0.491386 -0.870942 -0
v 0.805251 1.62537 -0.48
vt 18.8976 53.3092
vt 18.8976 57.8313
f 18/33/15 19/32/16 44/80/16 43/81/15 

vn 0.700059 -0.714085 -0
v 0.713435 1.55635 -0.48
vt 18.8976 59.2693
vt 18.8976 63.7915
f 19/37/16 20/36/17 45/82/17 44/83/16 

vn 0.861024 -0.508565 -0
v 0.64261 1.46593 -0.48
vt 18.8976 61.0363
vt 18.8976 65.5585
f 20/41/17 21/40/18 46/84/18 45/85/17 

vn 0.963311 -0.268386 -0
v 0.597603 1.36025 -0.48
vt 18.8976 58.4897
vt 18.8976 63.0118
f 21/45/18 22/44/19 47/86/19 46/87/18 

vn 0.999951 -0.00991805 -0
v 0.581482 1.24652 -0.48
vt 18.8976 51.803
vt 18.8976 56.3251
f 22/49/19 23/48/20 48/88/20 47/89/19 

vn 0.968445 0.249226 -0
v 0.595345 1.1325 -0.48
vt 18.8976 41.4319
vt 18.8976 45.9541
f 23/53/20 24/52/21 49/90/21 48/91/20 

vn 0.870942 0.491386 -0
v 0.638246 1.02595 -0.48
vt 18.8976 28.0832
vt 18.8976 32.6054
f 24/57/21 25/56/22 50/92/22 49/93/21 

vn 0.714085 0.700059 -0
v 0.707263 0.934131 -0.48
vt 18.8976 12.6666
vt 18.8976 17.1888
f 25/61/22 26/60/23 51/94/23 50/95/22 

vn 0.508565 0.861024 -0
v 0.797692 0.863307 -0.48
vt 18.8976 -3.76729
vt 18.8976 0.754876
f 26/65/23 27/64/24 52/96/24 51/97/23 

vn 0.268386 0.963311 -0
v 0.90337 0.8183 -0.48
vt 18.8976 -20.0985
vt 18.8976 -15.5764
f 27/69/24 28/68/25 53/98/25 52/99/24 

vn 0.00991805 0.999951 -0
v 1.0171 0.802179 -0.48
vt 18.8976 -35.2142
vt 18.8976 -30.692
f 28/73/25 29/72/26 54/100/26 53/101/25 

vt -18.8976 48.0842
vt -18.8976 43.562
f 29/77/26 30/76/3 32/102/3 54/103/26 

f 52/28/2 53/29/2 54/30/2 32/31/2 31/7/2 33/8/2 34/9/2 35/10/2 36/11/2 37/12/2 38/13/2 39/14/2 40/15/2 41/16/2 42/17/2 43/19/2 44/20/2 45/21/2 46/22/2 47/23/2 48/24/2 49/25/2 50/26/2 51/27/2 

vn -1 0 -0
v 0 1.88 -2.97
vt -116.929 74.0157
f 3/1/27 2/2/27 17/18/27 55/104/27 

vn 0 1 -0
v 2.97 1.88 -2.97
vt 116.929 116.929
f 17/2/28 5/6/28 56/105/28 55/3/28 

vn 1 0 -0
f 1/2/29 4/6/29 56/5/29 5/18/29 

vn 0 0 -1
f 4/1/30 3/2/30 55/18/30 56/104/30 

