# Alias OBJ Model File
# Exported from SketchUp, (c) 2000-2012 Trimble Navigation Limited
# File units = centimeters

mtllib test2.mtl

g Mesh1 Model

usemtl Color_G04
v 0 0 -58.9
vt 0 23.189
vn 0 -1 -0
v 51.0089 0 -29.45
vt -20.0822 11.5945
v 51.0089 0 29.45
vt -20.0822 -11.5945
v -7.21317e-15 0 58.9
vt 2.83983e-15 -23.189
v -51.0089 0 29.45
vt 20.0822 -11.5945
v -51.0089 0 -29.45
vt 20.0822 11.5945
f 1/1/1 2/2/1 3/3/1 4/4/1 5/5/1 6/6/1 

vt -11.5945 0
vn 0.5 0 -0.866025
vt 11.5945 0
v 0 176 -58.9
vt 11.5945 69.2913
v 51.0089 176 -29.45
vt -11.5945 69.2913
f 2/7/2 1/8/2 7/9/2 8/10/2 

vn -0.5 0 -0.866025
v -51.0089 176 -29.45
f 1/7/3 6/8/3 9/9/3 7/10/3 

vn -1 0 -1.53207e-16
v -51.0089 176 29.45
f 6/7/4 5/8/4 10/9/4 9/10/4 

vn -0.5 0 0.866025
v -7.21317e-15 176 58.9
f 5/7/5 4/8/5 11/9/5 10/10/5 

vn 0.5 0 0.866025
v 51.0089 176 29.45
f 4/7/6 3/8/6 12/9/6 11/10/6 

vn 1 0 6.12828e-16
f 3/7/7 2/8/7 8/9/7 12/10/7 

vn 0 1 -0
vt -2.83983e-15 -23.189
f 8/6/8 7/1/8 9/2/8 10/3/8 11/11/8 12/5/8 

